<?xml version="1.0" encoding="UTF-8" standalone="no"?>
<svg
   xmlns:dc="http://purl.org/dc/elements/1.1/"
   xmlns:cc="http://creativecommons.org/ns#"
   xmlns:rdf="http://www.w3.org/1999/02/22-rdf-syntax-ns#"
   xmlns:svg="http://www.w3.org/2000/svg"
   xmlns="http://www.w3.org/2000/svg"
   xmlns:sodipodi="http://sodipodi.sourceforge.net/DTD/sodipodi-0.dtd"
   xmlns:inkscape="http://www.inkscape.org/namespaces/inkscape"
   version="1.1"
   viewBox="0.0 0.0 960.0 720.0"
   fill="none"
   stroke="none"
   stroke-linecap="square"
   stroke-miterlimit="10"
   id="svg3199"
   inkscape:version="0.48.0 r9654"
   width="100%"
   height="100%"
   sodipodi:docname="WaterfallSimulationDraftDesign.svg">
  <metadata
     id="metadata3411">
    <rdf:RDF>
      <cc:Work
         rdf:about="">
        <dc:format>image/svg+xml</dc:format>
        <dc:type
           rdf:resource="http://purl.org/dc/dcmitype/StillImage" />
        <dc:title></dc:title>
      </cc:Work>
    </rdf:RDF>
  </metadata>
  <defs
     id="defs3409" />
  <sodipodi:namedview
     pagecolor="#ffffff"
     bordercolor="#666666"
     borderopacity="1"
     objecttolerance="10"
     gridtolerance="10"
     guidetolerance="10"
     inkscape:pageopacity="0"
     inkscape:pageshadow="2"
     inkscape:window-width="1920"
     inkscape:window-height="1030"
     id="namedview3407"
     showgrid="false"
     inkscape:zoom="1"
     inkscape:cx="480"
     inkscape:cy="360"
     inkscape:window-x="0"
     inkscape:window-y="0"
     inkscape:window-maximized="1"
     inkscape:current-layer="svg3199" />
  <path
     d="M123.6273 463.16797L899.3438 463.16797L899.3438 702.6011L123.6273 702.6011Z"
     fill-rule="nonzero"
     fill="#783f04"
     stroke="#783f04"
     stroke-width="2.0"
     stroke-linejoin="round"
     stroke-linecap="butt"
     id="path3201" />
  <path
     d="M409.18896 490.15616L492.76904 490.15616C504.30902 490.15616 513.66406 498.53644 513.66406 508.87402C513.66406 519.2116 504.30902 527.59186 492.76904 527.59186L409.18896 527.59186L409.18896 527.59186C397.649 527.59186 388.29398 519.2116 388.29398 508.87402C388.29398 498.53644 397.649 490.15616 409.18896 490.15616Z"
     fill-rule="nonzero"
     fill="#cfe2f3"
     id="path3203" />
  <path
     d="M492.76904 527.59186C481.22903 527.59186 471.87402 519.2116 471.87402 508.87402C471.87402 498.53644 481.22903 490.15616 492.76904 490.15616"
     fill-rule="nonzero"
     stroke="#073763"
     stroke-width="2.0"
     stroke-linejoin="round"
     stroke-linecap="butt"
     id="path3205" />
  <path
     d="M409.18896 490.15616L492.76904 490.15616C504.30902 490.15616 513.66406 498.53644 513.66406 508.87402C513.66406 519.2116 504.30902 527.59186 492.76904 527.59186L409.18896 527.59186L409.18896 527.59186C397.649 527.59186 388.29398 519.2116 388.29398 508.87402C388.29398 498.53644 397.649 490.15616 409.18896 490.15616Z"
     fill-rule="nonzero"
     stroke="#073763"
     stroke-width="2.0"
     stroke-linejoin="round"
     stroke-linecap="butt"
     id="path3207" />
  <path
     d="M234.19423 504.09186L234.19423 504.09186C234.19423 482.45273 252.7092 464.91077 275.54855 464.91077L275.54855 464.91077C286.51642 464.91077 297.03503 469.03876 304.7905 476.38663C312.54593 483.73453 316.9029 493.70038 316.9029 504.09186L316.9029 504.09186C316.9029 525.73096 298.3879 543.27295 275.54855 543.27295L275.54855 543.27295C252.7092 543.27295 234.19423 525.73096 234.19423 504.09186Z"
     fill-rule="nonzero"
     fill="#cfe2f3"
     stroke="#073763"
     stroke-width="2.0"
     stroke-linejoin="round"
     stroke-linecap="butt"
     id="path3209" />
  <path
     d="M292.52756 461.44095L302.5433 421.37796L909.7874 421.37796L899.77167 461.44095Z"
     fill-rule="nonzero"
     fill="#783f04"
     stroke="#000000"
     stroke-width="2.0"
     stroke-linejoin="round"
     stroke-linecap="butt"
     id="path3211" />
  <path
     d="M343.8924 134.07611L912.3963 134.07611L912.3963 421.38318L343.8924 421.38318Z"
     fill-rule="nonzero"
     fill="#00ffff"
     stroke="#0000ff"
     stroke-width="2.0"
     stroke-linejoin="round"
     stroke-linecap="butt"
     id="path3213" />
  <path
     d="M466.6509 345.41864L466.6509 345.41864C466.6509 348.66495 477.17752 351.2966 490.16272 351.2966C503.14795 351.2966 513.67456 348.66495 513.67456 345.41864L513.67456 522.5761C513.67456 525.8224 503.14795 528.45404 490.16272 528.45404C477.17752 528.45404 466.6509 525.8224 466.6509 522.5761Z"
     fill-rule="nonzero"
     fill="#cfe2f3"
     id="path3215" />
  <path
     d="M466.6509 345.41864L466.6509 345.41864C466.6509 342.17233 477.17752 339.54068 490.16272 339.54068C503.14795 339.54068 513.67456 342.17233 513.67456 345.41864L513.67456 345.41864C513.67456 348.66495 503.14795 351.2966 490.16272 351.2966C477.17752 351.2966 466.6509 348.66495 466.6509 345.41864Z"
     fill-rule="nonzero"
     fill="#e2edf7"
     id="path3217" />
  <path
     d="M513.67456 345.41864L513.67456 345.41864C513.67456 348.66495 503.14795 351.2966 490.16272 351.2966C477.17752 351.2966 466.6509 348.66495 466.6509 345.41864L466.6509 345.41864C466.6509 342.17233 477.17752 339.54068 490.16272 339.54068C503.14795 339.54068 513.67456 342.17233 513.67456 345.41864L513.67456 522.5761C513.67456 525.8224 503.14795 528.45404 490.16272 528.45404C477.17752 528.45404 466.6509 525.8224 466.6509 522.5761L466.6509 345.41864"
     fill-rule="nonzero"
     stroke="#073763"
     stroke-width="2.0"
     stroke-linejoin="round"
     stroke-linecap="butt"
     id="path3219" />
  <path
     d="M457.0735 493.6404L479.71915 493.6404L479.71915 526.7113L457.0735 526.7113Z"
     fill-rule="nonzero"
     fill="#cfe2f3"
     id="path3221" />
  <path
     d="M457.0735 493.1404L457.0735 493.1404L458.0735 493.1404L458.0735 494.1404L457.0735 494.1404ZM461.0735 493.1404L461.0735 493.1404L462.0735 493.1404L462.0735 494.1404L461.0735 494.1404ZM465.0735 493.1404L465.0735 493.1404L466.0735 493.1404L466.0735 494.1404L465.0735 494.1404ZM469.0735 493.1404L469.0735 493.1404L470.0735 493.1404L470.0735 494.1404L469.0735 494.1404ZM473.0735 493.1404L473.0735 493.1404L474.0735 493.1404L474.0735 494.1404L473.0735 494.1404ZM477.0735 493.1404L477.0735 493.1404L478.0735 493.1404L478.0735 494.1404L477.0735 494.1404ZM480.21915 494.99475L480.21915 494.99475L480.21915 495.99475L479.21915 495.99475L479.21915 494.99475ZM480.21915 498.99475L480.21915 498.99475L480.21915 499.99475L479.21915 499.99475L479.21915 498.99475ZM480.21915 502.99475L480.21915 502.99475L480.21915 503.99475L479.21915 503.99475L479.21915 502.99475ZM480.21915 506.99475L480.21915 506.99475L480.21915 507.99475L479.21915 507.99475L479.21915 506.99475ZM480.21915 510.99475L480.21915 510.99475L480.21915 511.99475L479.21915 511.99475L479.21915 510.99475ZM480.21915 514.99475L480.21915 514.99475L480.21915 515.99475L479.21915 515.99475L479.21915 514.99475ZM480.21915 518.99475L480.21915 518.99475L480.21915 519.99475L479.21915 519.99475L479.21915 518.99475ZM480.21915 522.99475L480.21915 522.99475L480.21915 523.99475L479.21915 523.99475L479.21915 522.99475ZM479.4357 527.2113L479.4357 527.2113L478.4357 527.2113L478.4357 526.2113L479.4357 526.2113ZM475.4357 527.2113L475.4357 527.2113L474.4357 527.2113L474.4357 526.2113L475.4357 526.2113ZM471.4357 527.2113L471.4357 527.2113L470.4357 527.2113L470.4357 526.2113L471.4357 526.2113ZM467.4357 527.2113L467.4357 527.2113L466.4357 527.2113L466.4357 526.2113L467.4357 526.2113ZM463.4357 527.2113L463.4357 527.2113L462.4357 527.2113L462.4357 526.2113L463.4357 526.2113ZM459.4357 527.2113L459.4357 527.2113L458.4357 527.2113L458.4357 526.2113L459.4357 526.2113ZM456.5735 525.0735L456.5735 525.0735L456.5735 524.0735L457.5735 524.0735L457.5735 525.0735ZM456.5735 521.0735L456.5735 521.0735L456.5735 520.0735L457.5735 520.0735L457.5735 521.0735ZM456.5735 517.0735L456.5735 517.0735L456.5735 516.0735L457.5735 516.0735L457.5735 517.0735ZM456.5735 513.0735L456.5735 513.0735L456.5735 512.0735L457.5735 512.0735L457.5735 513.0735ZM456.5735 509.0735L456.5735 509.0735L456.5735 508.0735L457.5735 508.0735L457.5735 509.0735ZM456.5735 505.0735L456.5735 505.0735L456.5735 504.0735L457.5735 504.0735L457.5735 505.0735ZM456.5735 501.0735L456.5735 501.0735L456.5735 500.0735L457.5735 500.0735L457.5735 501.0735ZM456.5735 497.0735L456.5735 497.0735L456.5735 496.0735L457.5735 496.0735L457.5735 497.0735ZM457.0735 493.1404L457.0735 493.1404L458.0735 493.1404L458.0735 494.1404L457.0735 494.1404Z"
     fill-rule="nonzero"
     fill="#cfe2f3"
     id="path3223" />
  <path
     d="M120.997375 462.29395L178.46194 87.931755L350.85565 87.931755L293.39108 462.29395Z"
     fill-rule="nonzero"
     fill="#b45f06"
     stroke="#783f04"
     stroke-width="2.0"
     stroke-linejoin="round"
     stroke-linecap="butt"
     id="path3225" />
  <path
     d="M320.96454 491.458L413.83063 491.458C426.65277 491.458 437.04715 499.83826 437.04715 510.17584C437.04715 520.5134 426.65277 528.8937 413.83063 528.8937L320.96454 528.8937L320.96454 528.8937C308.14243 528.8937 297.74802 520.5134 297.74802 510.17584C297.74802 499.83826 308.14243 491.458 320.96454 491.458Z"
     fill-rule="nonzero"
     fill="#cfe2f3"
     id="path3227" />
  <path
     d="M413.83063 528.8937C401.0085 528.8937 390.6141 520.5134 390.6141 510.17584C390.6141 499.83826 401.0085 491.458 413.83063 491.458"
     fill-rule="nonzero"
     stroke="#073763"
     stroke-width="2.0"
     stroke-linejoin="round"
     stroke-linecap="butt"
     id="path3229" />
  <path
     d="M320.96454 491.458L413.83063 491.458C426.65277 491.458 437.04715 499.83826 437.04715 510.17584C437.04715 520.5134 426.65277 528.8937 413.83063 528.8937L320.96454 528.8937L320.96454 528.8937C308.14243 528.8937 297.74802 520.5134 297.74802 510.17584C297.74802 499.83826 308.14243 491.458 320.96454 491.458Z"
     fill-rule="nonzero"
     stroke="#073763"
     stroke-width="2.0"
     stroke-linejoin="round"
     stroke-linecap="butt"
     id="path3231" />
  <path
     d="M281.20996 492.76904L334.31235 492.76904L334.31235 526.7218L281.20996 526.7218Z"
     fill-rule="nonzero"
     fill="#cfe2f3"
     id="path3233" />
  <path
     d="M281.20996 492.26904L281.20996 492.26904L282.20996 492.26904L282.20996 493.26904L281.20996 493.26904ZM285.20996 492.26904L285.20996 492.26904L286.20996 492.26904L286.20996 493.26904L285.20996 493.26904ZM289.20996 492.26904L289.20996 492.26904L290.20996 492.26904L290.20996 493.26904L289.20996 493.26904ZM293.20996 492.26904L293.20996 492.26904L294.20996 492.26904L294.20996 493.26904L293.20996 493.26904ZM297.20996 492.26904L297.20996 492.26904L298.20996 492.26904L298.20996 493.26904L297.20996 493.26904ZM301.20996 492.26904L301.20996 492.26904L302.20996 492.26904L302.20996 493.26904L301.20996 493.26904ZM305.20996 492.26904L305.20996 492.26904L306.20996 492.26904L306.20996 493.26904L305.20996 493.26904ZM309.20996 492.26904L309.20996 492.26904L310.20996 492.26904L310.20996 493.26904L309.20996 493.26904ZM313.20996 492.26904L313.20996 492.26904L314.20996 492.26904L314.20996 493.26904L313.20996 493.26904ZM317.20996 492.26904L317.20996 492.26904L318.20996 492.26904L318.20996 493.26904L317.20996 493.26904ZM321.20996 492.26904L321.20996 492.26904L322.20996 492.26904L322.20996 493.26904L321.20996 493.26904ZM325.20996 492.26904L325.20996 492.26904L326.20996 492.26904L326.20996 493.26904L325.20996 493.26904ZM329.20996 492.26904L329.20996 492.26904L330.20996 492.26904L330.20996 493.26904L329.20996 493.26904ZM333.20996 492.26904L333.20996 492.26904L334.20996 492.26904L334.20996 493.26904L333.20996 493.26904ZM334.81235 495.66666L334.81235 495.66666L334.81235 496.66666L333.81235 496.66666L333.81235 495.66666ZM334.81235 499.66666L334.81235 499.66666L334.81235 500.66666L333.81235 500.66666L333.81235 499.66666ZM334.81235 503.66666L334.81235 503.66666L334.81235 504.66666L333.81235 504.66666L333.81235 503.66666ZM334.81235 507.66666L334.81235 507.66666L334.81235 508.66666L333.81235 508.66666L333.81235 507.66666ZM334.81235 511.66666L334.81235 511.66666L334.81235 512.6666L333.81235 512.6666L333.81235 511.66666ZM334.81235 515.6666L334.81235 515.6666L334.81235 516.6666L333.81235 516.6666L333.81235 515.6666ZM334.81235 519.6666L334.81235 519.6666L334.81235 520.6666L333.81235 520.6666L333.81235 519.6666ZM334.81235 523.6666L334.81235 523.6666L334.81235 524.6666L333.81235 524.6666L333.81235 523.6666ZM333.36752 527.2218L333.36752 527.2218L332.36752 527.2218L332.36752 526.2218L333.36752 526.2218ZM329.36752 527.2218L329.36752 527.2218L328.36752 527.2218L328.36752 526.2218L329.36752 526.2218ZM325.36752 527.2218L325.36752 527.2218L324.36752 527.2218L324.36752 526.2218L325.36752 526.2218ZM321.36752 527.2218L321.36752 527.2218L320.36752 527.2218L320.36752 526.2218L321.36752 526.2218ZM317.36752 527.2218L317.36752 527.2218L316.36752 527.2218L316.36752 526.2218L317.36752 526.2218ZM313.36752 527.2218L313.36752 527.2218L312.36752 527.2218L312.36752 526.2218L313.36752 526.2218ZM309.36752 527.2218L309.36752 527.2218L308.36752 527.2218L308.36752 526.2218L309.36752 526.2218ZM305.36752 527.2218L305.36752 527.2218L304.36752 527.2218L304.36752 526.2218L305.36752 526.2218ZM301.36752 527.2218L301.36752 527.2218L300.36752 527.2218L300.36752 526.2218L301.36752 526.2218ZM297.36752 527.2218L297.36752 527.2218L296.36752 527.2218L296.36752 526.2218L297.36752 526.2218ZM293.36752 527.2218L293.36752 527.2218L292.36752 527.2218L292.36752 526.2218L293.36752 526.2218ZM289.36752 527.2218L289.36752 527.2218L288.36752 527.2218L288.36752 526.2218L289.36752 526.2218ZM285.36752 527.2218L285.36752 527.2218L284.36752 527.2218L284.36752 526.2218L285.36752 526.2218ZM281.36752 527.2218L281.36752 527.2218L281.20996 527.2218L280.95996 527.1548L280.70996 526.7218L280.70996 525.8794L281.70996 525.8794L281.70996 526.7218L281.20996 526.7218L281.20996 526.2218L281.36752 526.2218ZM280.70996 522.8794L280.70996 522.8794L280.70996 521.8794L281.70996 521.8794L281.70996 522.8794ZM280.70996 518.8794L280.70996 518.8794L280.70996 517.8794L281.70996 517.8794L281.70996 518.8794ZM280.70996 514.8794L280.70996 514.8794L280.70996 513.8794L281.70996 513.8794L281.70996 514.8794ZM280.70996 510.8794L280.70996 510.8794L280.70996 509.8794L281.70996 509.8794L281.70996 510.8794ZM280.70996 506.8794L280.70996 506.8794L280.70996 505.8794L281.70996 505.8794L281.70996 506.8794ZM280.70996 502.8794L280.70996 502.8794L280.70996 501.8794L281.70996 501.8794L281.70996 502.8794ZM280.70996 498.8794L280.70996 498.8794L280.70996 497.8794L281.70996 497.8794L281.70996 498.8794ZM280.70996 494.8794L280.70996 494.8794L280.70996 493.8794L281.70996 493.8794L281.70996 494.8794ZM281.20996 492.26904L281.20996 492.26904L282.20996 492.26904L282.20996 493.26904L281.20996 493.26904Z"
     fill-rule="nonzero"
     fill="#cfe2f3"
     id="path3235" />
  <path
     d="M175.86351 87.28084L307.1076 87.28084L307.1076 461.42258L175.86351 461.42258Z"
     fill-rule="nonzero"
     fill="#b45f06"
     id="path3237" />
  <path
     d="M307.1076 87.28084L350.85565 43.53281L350.85565 417.67453L307.1076 461.42258Z"
     fill-rule="nonzero"
     fill="#904c04"
     id="path3239" />
  <path
     d="M175.86351 87.28084L219.61154 43.53281L350.85565 43.53281L307.1076 87.28084Z"
     fill-rule="nonzero"
     fill="#c37f37"
     id="path3241" />
  <path
     d="M175.86351 87.28084L219.61154 43.53281L350.85565 43.53281L350.85565 417.67453L307.1076 461.42258L175.86351 461.42258ZM175.86351 87.28084L307.1076 87.28084L350.85565 43.53281M307.1076 87.28084L307.1076 461.42258"
     fill-rule="nonzero"
     stroke="#783f04"
     stroke-width="2.0"
     stroke-linejoin="round"
     stroke-linecap="butt"
     id="path3243" />
  <path
     d="M344.7638 134.07611L347.81104 121.88714L952.4488 121.88714L949.40155 134.07611Z"
     fill-rule="nonzero"
     fill="#0000ff"
     stroke="#0000ff"
     stroke-width="2.0"
     stroke-linejoin="round"
     stroke-linecap="butt"
     id="path3245" />
  <path
     d="M468.39108 93.58924L468.39108 93.58924C468.39108 96.713776 478.52283 99.24672 491.021 99.24672C503.51917 99.24672 513.65094 96.713776 513.65094 93.58924L513.65094 389.61285C513.65094 392.7374 503.51917 395.27032 491.021 395.27032C478.52283 395.27032 468.39108 392.7374 468.39108 389.61285Z"
     fill-rule="nonzero"
     fill="#cfe2f3"
     id="path3247" />
  <path
     d="M468.39108 93.58924L468.39108 93.58924C468.39108 90.4647 478.52283 87.931755 491.021 87.931755C503.51917 87.931755 513.65094 90.4647 513.65094 93.58924L513.65094 93.58924C513.65094 96.713776 503.51917 99.24672 491.021 99.24672C478.52283 99.24672 468.39108 96.713776 468.39108 93.58924Z"
     fill-rule="nonzero"
     fill="#e2edf7"
     id="path3249" />
  <path
     d="M513.65094 93.58924L513.65094 93.58924C513.65094 96.713776 503.51917 99.24672 491.021 99.24672C478.52283 99.24672 468.39108 96.713776 468.39108 93.58924L468.39108 93.58924C468.39108 90.4647 478.52283 87.931755 491.021 87.931755C503.51917 87.931755 513.65094 90.4647 513.65094 93.58924L513.65094 389.61285C513.65094 392.7374 503.51917 395.27032 491.021 395.27032C478.52283 395.27032 468.39108 392.7374 468.39108 389.61285L468.39108 93.58924"
     fill-rule="nonzero"
     stroke="#073763"
     stroke-width="2.0"
     stroke-linejoin="round"
     stroke-linecap="butt"
     id="path3251" />
  <path
     d="M471.00262 378.71915L511.91602 378.71915L511.91602 422.2467L471.00262 422.2467Z"
     fill-rule="nonzero"
     fill="#cfe2f3"
     stroke="#cfe2f3"
     stroke-width="2.0"
     stroke-linejoin="round"
     stroke-linecap="butt"
     id="path3253" />
  <path
     d="M151.48819 461.42258L174.12598 119.28084L242.03937 119.28084L219.40158 461.42258Z"
     fill-rule="nonzero"
     fill="#b45f06"
     stroke="#b45f06"
     stroke-width="2.0"
     stroke-linejoin="round"
     stroke-linecap="butt"
     id="path3255" />
  <path
     d="M376.97638 492.76904L451.84253 492.76904L451.84253 526.7218L376.97638 526.7218Z"
     fill-rule="nonzero"
     fill="#cfe2f3"
     stroke="#cfe2f3"
     stroke-width="2.0"
     stroke-linejoin="round"
     stroke-linecap="butt"
     id="path3257" />
  <path
     d="M514.2428 153.22835L547.9068 153.22835C552.5549 153.22835 556.3228 159.46523 556.3228 167.1588C556.3228 174.85237 552.5549 181.08923 547.9068 181.08923L514.2428 181.08923L514.2428 181.08923C509.59476 181.08923 505.82678 174.85237 505.82678 167.1588C505.82678 159.46523 509.59476 153.22835 514.2428 153.22835Z"
     fill-rule="nonzero"
     fill="#cfe2f3"
     id="path3259" />
  <path
     d="M547.9068 181.08923C543.2588 181.08923 539.4908 174.85237 539.4908 167.1588C539.4908 159.46523 543.2588 153.22835 547.9068 153.22835"
     fill-rule="nonzero"
     stroke="#073763"
     stroke-width="2.0"
     stroke-linejoin="round"
     stroke-linecap="butt"
     id="path3261" />
  <path
     d="M514.2428 153.22835L547.9068 153.22835C552.5549 153.22835 556.3228 159.46523 556.3228 167.1588C556.3228 174.85237 552.5549 181.08923 547.9068 181.08923L514.2428 181.08923L514.2428 181.08923C509.59476 181.08923 505.82678 174.85237 505.82678 167.1588C505.82678 159.46523 509.59476 153.22835 514.2428 153.22835Z"
     fill-rule="nonzero"
     stroke="#073763"
     stroke-width="2.0"
     stroke-linejoin="round"
     stroke-linecap="butt"
     id="path3263" />
  <path
     d="M514.2428 206.66405L547.9068 206.66405C552.5549 206.66405 556.3228 212.90091 556.3228 220.59448C556.3228 228.28806 552.5549 234.52493 547.9068 234.52493L514.2428 234.52493L514.2428 234.52493C509.59476 234.52493 505.82678 228.28806 505.82678 220.59448C505.82678 212.90091 509.59476 206.66405 514.2428 206.66405Z"
     fill-rule="nonzero"
     fill="#cfe2f3"
     id="path3265" />
  <path
     d="M547.9068 234.52493C543.2588 234.52493 539.4908 228.28806 539.4908 220.59448C539.4908 212.90091 543.2588 206.66405 547.9068 206.66405"
     fill-rule="nonzero"
     stroke="#073763"
     stroke-width="2.0"
     stroke-linejoin="round"
     stroke-linecap="butt"
     id="path3267" />
  <path
     d="M514.2428 206.66405L547.9068 206.66405C552.5549 206.66405 556.3228 212.90091 556.3228 220.59448C556.3228 228.28806 552.5549 234.52493 547.9068 234.52493L514.2428 234.52493L514.2428 234.52493C509.59476 234.52493 505.82678 228.28806 505.82678 220.59448C505.82678 212.90091 509.59476 206.66405 514.2428 206.66405Z"
     fill-rule="nonzero"
     stroke="#073763"
     stroke-width="2.0"
     stroke-linejoin="round"
     stroke-linecap="butt"
     id="path3269" />
  <path
     d="M514.2428 256.61942L547.9068 256.61942C552.5549 256.61942 556.3228 262.8563 556.3228 270.54987C556.3228 278.24344 552.5549 284.48032 547.9068 284.48032L514.2428 284.48032L514.2428 284.48032C509.59476 284.48032 505.82678 278.24344 505.82678 270.54987C505.82678 262.8563 509.59476 256.61942 514.2428 256.61942Z"
     fill-rule="nonzero"
     fill="#cfe2f3"
     id="path3271" />
  <path
     d="M547.9068 284.48032C543.2588 284.48032 539.4908 278.24344 539.4908 270.54987C539.4908 262.8563 543.2588 256.61942 547.9068 256.61942"
     fill-rule="nonzero"
     stroke="#073763"
     stroke-width="2.0"
     stroke-linejoin="round"
     stroke-linecap="butt"
     id="path3273" />
  <path
     d="M514.2428 256.61942L547.9068 256.61942C552.5549 256.61942 556.3228 262.8563 556.3228 270.54987C556.3228 278.24344 552.5549 284.48032 547.9068 284.48032L514.2428 284.48032L514.2428 284.48032C509.59476 284.48032 505.82678 278.24344 505.82678 270.54987C505.82678 262.8563 509.59476 256.61942 514.2428 256.61942Z"
     fill-rule="nonzero"
     stroke="#073763"
     stroke-width="2.0"
     stroke-linejoin="round"
     stroke-linecap="butt"
     id="path3275" />
  <path
     d="M514.2428 304.83203L547.9068 304.83203C552.5549 304.83203 556.3228 311.0689 556.3228 318.76248C556.3228 326.45605 552.5549 332.6929 547.9068 332.6929L514.2428 332.6929L514.2428 332.6929C509.59476 332.6929 505.82678 326.45605 505.82678 318.76248C505.82678 311.0689 509.59476 304.83203 514.2428 304.83203Z"
     fill-rule="nonzero"
     fill="#cfe2f3"
     id="path3277" />
  <path
     d="M547.9068 332.6929C543.2588 332.6929 539.4908 326.45605 539.4908 318.76248C539.4908 311.0689 543.2588 304.83203 547.9068 304.83203"
     fill-rule="nonzero"
     stroke="#073763"
     stroke-width="2.0"
     stroke-linejoin="round"
     stroke-linecap="butt"
     id="path3279" />
  <path
     d="M514.2428 304.83203L547.9068 304.83203C552.5549 304.83203 556.3228 311.0689 556.3228 318.76248C556.3228 326.45605 552.5549 332.6929 547.9068 332.6929L514.2428 332.6929L514.2428 332.6929C509.59476 332.6929 505.82678 326.45605 505.82678 318.76248C505.82678 311.0689 509.59476 304.83203 514.2428 304.83203Z"
     fill-rule="nonzero"
     stroke="#073763"
     stroke-width="2.0"
     stroke-linejoin="round"
     stroke-linecap="butt"
     id="path3281" />
  <path
     d="M514.2428 350.85828L547.9068 350.85828C552.5549 350.85828 556.3228 357.09515 556.3228 364.78873C556.3228 372.4823 552.5549 378.71915 547.9068 378.71915L514.2428 378.71915L514.2428 378.71915C509.59476 378.71915 505.82678 372.4823 505.82678 364.78873C505.82678 357.09515 509.59476 350.85828 514.2428 350.85828Z"
     fill-rule="nonzero"
     fill="#cfe2f3"
     id="path3283" />
  <path
     d="M547.9068 378.71915C543.2588 378.71915 539.4908 372.4823 539.4908 364.78873C539.4908 357.09515 543.2588 350.85828 547.9068 350.85828"
     fill-rule="nonzero"
     stroke="#073763"
     stroke-width="2.0"
     stroke-linejoin="round"
     stroke-linecap="butt"
     id="path3285" />
  <path
     d="M514.2428 350.85828L547.9068 350.85828C552.5549 350.85828 556.3228 357.09515 556.3228 364.78873C556.3228 372.4823 552.5549 378.71915 547.9068 378.71915L514.2428 378.71915L514.2428 378.71915C509.59476 378.71915 505.82678 372.4823 505.82678 364.78873C505.82678 357.09515 509.59476 350.85828 514.2428 350.85828Z"
     fill-rule="nonzero"
     stroke="#073763"
     stroke-width="2.0"
     stroke-linejoin="round"
     stroke-linecap="butt"
     id="path3287" />
  <path
     d="M244.20998 504.09186L244.20998 504.09186C244.20998 487.2624 258.24072 473.61942 275.54855 473.61942L275.54855 473.61942C283.86008 473.61942 291.83115 476.8299 297.70828 482.5446C303.58542 488.25928 306.88715 496.01007 306.88715 504.09186L306.88715 504.09186C306.88715 520.9213 292.85638 534.56433 275.54855 534.56433L275.54855 534.56433C258.24072 534.56433 244.20998 520.9213 244.20998 504.09186Z"
     fill-rule="nonzero"
     fill="#00ffff"
     stroke="#0000ff"
     stroke-width="2.0"
     stroke-linejoin="round"
     stroke-linecap="butt"
     id="path3289" />
  <path
     d="M297.70828 482.5446L253.38884 525.63916"
     fill-rule="nonzero"
     stroke="#000000"
     stroke-width="8.0"
     stroke-linejoin="round"
     stroke-linecap="butt"
     id="path3291" />
  <path
     d="M253.38884 482.5446L297.70828 525.63916"
     fill-rule="nonzero"
     stroke="#000000"
     stroke-width="8.0"
     stroke-linejoin="round"
     stroke-linecap="butt"
     id="path3293" />
  <path
     d="M275.54855 473.61942L275.54855 534.56433"
     fill-rule="nonzero"
     stroke="#000000"
     stroke-width="8.0"
     stroke-linejoin="round"
     stroke-linecap="butt"
     id="path3295" />
  <path
     d="M244.20998 504.09186L306.88715 504.09186"
     fill-rule="nonzero"
     stroke="#000000"
     stroke-width="8.0"
     stroke-linejoin="round"
     stroke-linecap="butt"
     id="path3297" />
  <path
     d="M244.7556 526.21063L174.53377 527.2292C164.83815 527.3698 156.86241 519.49396 156.71945 509.63797C156.57648 499.78195 164.32043 491.67807 174.01605 491.5374L244.23788 490.51883L244.23788 490.51883C253.93349 490.37817 261.90924 498.25406 262.05222 508.11008C262.19516 517.96606 254.45122 526.06995 244.7556 526.21063Z"
     fill-rule="nonzero"
     fill="#cfe2f3"
     id="path3299" />
  <path
     d="M174.01605 491.5374C183.71165 491.3968 191.6874 499.27264 191.83037 509.12866C191.97333 518.9847 184.22939 527.08856 174.53377 527.2292"
     fill-rule="nonzero"
     stroke="#073763"
     stroke-width="2.0"
     stroke-linejoin="round"
     stroke-linecap="butt"
     id="path3301" />
  <path
     d="M244.7556 526.21063L174.53377 527.2292C164.83815 527.3698 156.86241 519.49396 156.71945 509.63797C156.57648 499.78195 164.32043 491.67807 174.01605 491.5374L244.23788 490.51883L244.23788 490.51883C253.93349 490.37817 261.90924 498.25406 262.05222 508.11008C262.19516 517.96606 254.45122 526.06995 244.7556 526.21063Z"
     fill-rule="nonzero"
     stroke="#073763"
     stroke-width="2.0"
     stroke-linejoin="round"
     stroke-linecap="butt"
     id="path3303" />
  <path
     d="M156.46059 510.17584L156.46059 510.17584C156.46059 500.55652 164.44896 492.75854 174.30312 492.75854L174.30312 492.75854C179.03523 492.75854 183.57355 494.59357 186.91968 497.85995C190.2658 501.12634 192.14563 505.5565 192.14563 510.17584L192.14563 510.17584C192.14563 519.79517 184.15726 527.5932 174.30312 527.5932L174.30312 527.5932C164.44896 527.5932 156.46059 519.79517 156.46059 510.17584Z"
     fill-rule="nonzero"
     fill="#00ffff"
     stroke="#073763"
     stroke-width="2.0"
     stroke-linejoin="round"
     stroke-linecap="butt"
     id="path3305" />
  <path
     d="M138.44244 506.71033L161.68654 497.85995"
     fill-rule="nonzero"
     stroke="#073763"
     stroke-width="2.0"
     stroke-linejoin="round"
     stroke-linecap="butt"
     id="path3307" />
  <path
     d="M141.02513 532.82245L161.68654 522.49176"
     fill-rule="nonzero"
     stroke="#073763"
     stroke-width="2.0"
     stroke-linejoin="round"
     stroke-linecap="butt"
     id="path3309" />
  <path
     d="M1.7401575 59.2021L107.09449 59.2021L107.09449 620.7454L1.7401575 620.7454Z"
     fill-rule="nonzero"
     fill="#444444"
     stroke="#000000"
     stroke-width="2.0"
     stroke-linejoin="round"
     stroke-linecap="butt"
     id="path3311" />
  <path
     d="M455.33334 79.37139L455.33334 79.37139C455.33334 76.4063 471.1197 74.002625 490.59317 74.002625C510.06665 74.002625 525.853 76.4063 525.853 79.37139L525.853 100.84646C525.853 103.81155 510.06665 106.215225 490.59317 106.215225C471.1197 106.215225 455.33334 103.81155 455.33334 100.84646Z"
     fill-rule="nonzero"
     fill="#444444"
     id="path3313" />
  <path
     d="M525.853 79.37139L525.853 79.37139C525.853 82.33648 510.06665 84.74016 490.59317 84.74016C471.1197 84.74016 455.33334 82.33648 455.33334 79.37139"
     fill-rule="nonzero"
     stroke="#000000"
     stroke-width="2.0"
     stroke-linejoin="round"
     stroke-linecap="butt"
     id="path3315" />
  <path
     d="M455.33334 79.37139L455.33334 79.37139C455.33334 76.4063 471.1197 74.002625 490.59317 74.002625C510.06665 74.002625 525.853 76.4063 525.853 79.37139L525.853 100.84646C525.853 103.81155 510.06665 106.215225 490.59317 106.215225C471.1197 106.215225 455.33334 103.81155 455.33334 100.84646Z"
     fill-rule="nonzero"
     stroke="#000000"
     stroke-width="2.0"
     stroke-linejoin="round"
     stroke-linecap="butt"
     id="path3317" />
  <path
     d="M32.212597 179.05731L32.212597 179.05731C32.212597 174.89005 38.059338 171.51181 45.271652 171.51181C52.48397 171.51181 58.330708 174.89005 58.330708 179.05731L58.330708 209.23929C58.330708 213.40654 52.48397 216.78477 45.271652 216.78477C38.059338 216.78477 32.212597 213.40654 32.212597 209.23929Z"
     fill-rule="nonzero"
     fill="#999999"
     id="path3319" />
  <path
     d="M58.330708 179.05731L58.330708 179.05731C58.330708 183.22456 52.48397 186.6028 45.271652 186.6028C38.059338 186.6028 32.212597 183.22456 32.212597 179.05731"
     fill-rule="nonzero"
     stroke="#666666"
     stroke-width="2.0"
     stroke-linejoin="round"
     stroke-linecap="butt"
     id="path3321" />
  <path
     d="M32.212597 179.05731L32.212597 179.05731C32.212597 174.89005 38.059338 171.51181 45.271652 171.51181C52.48397 171.51181 58.330708 174.89005 58.330708 179.05731L58.330708 209.23929C58.330708 213.40654 52.48397 216.78477 45.271652 216.78477C38.059338 216.78477 32.212597 213.40654 32.212597 209.23929Z"
     fill-rule="nonzero"
     stroke="#666666"
     stroke-width="2.0"
     stroke-linejoin="round"
     stroke-linecap="butt"
     id="path3323" />
  <path
     d="M33.952755 196.32808L33.952755 196.32808C33.952755 190.79654 39.022163 186.31233 45.275593 186.31233L45.275593 186.31233C51.52902 186.31233 56.598427 190.79654 56.598427 196.32808L56.598427 196.32808C56.598427 201.85963 51.52902 206.34383 45.275593 206.34383L45.275593 206.34383C39.022163 206.34383 33.952755 201.85963 33.952755 196.32808Z"
     fill-rule="nonzero"
     fill="#999999"
     stroke="#666666"
     stroke-width="2.0"
     stroke-linejoin="round"
     stroke-linecap="butt"
     id="path3325" />
  <path
     d="M20.023623 158.4462L20.023623 158.4462C20.023623 142.58214 31.523207 129.72179 45.708664 129.72179L45.708664 129.72179C52.52076 129.72179 59.05385 132.7481 63.870728 138.13496C68.68761 143.52184 71.3937 150.828 71.3937 158.4462L71.3937 158.4462C71.3937 174.31024 59.89412 187.17061 45.708664 187.17061L45.708664 187.17061C31.523207 187.17061 20.023623 174.31024 20.023623 158.4462Z"
     fill-rule="nonzero"
     fill="#ffffff"
     stroke="#000000"
     stroke-width="1.0"
     stroke-linejoin="round"
     stroke-linecap="butt"
     id="path3327" />
  <path
     d="M45.708664 129.72179L47.0 103.61155"
     fill-rule="nonzero"
     stroke="#ffff00"
     stroke-width="2.0"
     stroke-linejoin="round"
     stroke-linecap="butt"
     id="path3329" />
  <path
     d="M63.870728 138.13496L83.587265 120.15072"
     fill-rule="nonzero"
     stroke="#ffff00"
     stroke-width="2.0"
     stroke-linejoin="round"
     stroke-linecap="butt"
     id="path3331" />
  <path
     d="M27.546597 138.13496L7.83006 121.883"
     fill-rule="nonzero"
     stroke="#ffff00"
     stroke-width="2.0"
     stroke-linejoin="round"
     stroke-linecap="butt"
     id="path3333" />
  <path
     d="M71.3937 158.4462L89.661415 158.4462"
     fill-rule="nonzero"
     stroke="#ffff00"
     stroke-width="2.0"
     stroke-linejoin="round"
     stroke-linecap="butt"
     id="path3335" />
  <path
     d="M20.023623 158.4462L1.755906 158.4462"
     fill-rule="nonzero"
     stroke="#ffff00"
     stroke-width="2.0"
     stroke-linejoin="round"
     stroke-linecap="butt"
     id="path3337" />
  <path
     d="M34.816605 340.9917L34.816605 340.9917C34.816605 336.82443 40.663345 333.4462 47.87566 333.4462C55.08798 333.4462 60.934715 336.82443 60.934715 340.9917L60.934715 371.17368C60.934715 375.3409 55.08798 378.71915 47.87566 378.71915C40.663345 378.71915 34.816605 375.3409 34.816605 371.17368Z"
     fill-rule="nonzero"
     fill="#999999"
     id="path3339" />
  <path
     d="M60.934715 340.9917L60.934715 340.9917C60.934715 345.15894 55.08798 348.53717 47.87566 348.53717C40.663345 348.53717 34.816605 345.15894 34.816605 340.9917"
     fill-rule="nonzero"
     stroke="#666666"
     stroke-width="2.0"
     stroke-linejoin="round"
     stroke-linecap="butt"
     id="path3341" />
  <path
     d="M34.816605 340.9917L34.816605 340.9917C34.816605 336.82443 40.663345 333.4462 47.87566 333.4462C55.08798 333.4462 60.934715 336.82443 60.934715 340.9917L60.934715 371.17368C60.934715 375.3409 55.08798 378.71915 47.87566 378.71915C40.663345 378.71915 34.816605 375.3409 34.816605 371.17368Z"
     fill-rule="nonzero"
     stroke="#666666"
     stroke-width="2.0"
     stroke-linejoin="round"
     stroke-linecap="butt"
     id="path3343" />
  <path
     d="M36.556763 358.26248L36.556763 358.26248C36.556763 352.73093 41.62617 348.2467 47.8796 348.2467L47.8796 348.2467C54.133026 348.2467 59.202435 352.73093 59.202435 358.26248L59.202435 358.26248C59.202435 363.794 54.133026 368.27823 47.8796 368.27823L47.8796 368.27823C41.62617 368.27823 36.556763 363.794 36.556763 358.26248Z"
     fill-rule="nonzero"
     fill="#999999"
     stroke="#666666"
     stroke-width="2.0"
     stroke-linejoin="round"
     stroke-linecap="butt"
     id="path3345" />
  <path
     d="M22.62763 320.38058L22.62763 320.38058C22.62763 304.5165 34.127213 291.65616 48.31267 291.65616L48.31267 291.65616C55.124767 291.65616 61.657856 294.6825 66.47474 300.06937C71.29162 305.45624 73.99771 312.7624 73.99771 320.38058L73.99771 320.38058C73.99771 336.24463 62.498127 349.10498 48.31267 349.10498L48.31267 349.10498C34.127213 349.10498 22.62763 336.24463 22.62763 320.38058Z"
     fill-rule="nonzero"
     fill="#ffffff"
     stroke="#000000"
     stroke-width="1.0"
     stroke-linejoin="round"
     stroke-linecap="butt"
     id="path3347" />
  <path
     d="M48.31267 291.65616L49.604008 265.54593"
     fill-rule="nonzero"
     stroke="#ffff00"
     stroke-width="2.0"
     stroke-linejoin="round"
     stroke-linecap="butt"
     id="path3349" />
  <path
     d="M30.150604 300.06937L10.434068 283.81738"
     fill-rule="nonzero"
     stroke="#ffff00"
     stroke-width="2.0"
     stroke-linejoin="round"
     stroke-linecap="butt"
     id="path3351" />
  <path
     d="M22.62763 320.38058L4.359914 320.38058"
     fill-rule="nonzero"
     stroke="#ffff00"
     stroke-width="2.0"
     stroke-linejoin="round"
     stroke-linecap="butt"
     id="path3353" />
  <path
     d="M35.249676 497.69247L35.249676 497.69247C35.249676 493.5252 41.096416 490.14697 48.30873 490.14697C55.52105 490.14697 61.367786 493.5252 61.367786 497.69247L61.367786 527.87445C61.367786 532.0417 55.52105 535.4199 48.30873 535.4199C41.096416 535.4199 35.249676 532.0417 35.249676 527.87445Z"
     fill-rule="nonzero"
     fill="#999999"
     id="path3355" />
  <path
     d="M61.367786 497.69247L61.367786 497.69247C61.367786 501.85974 55.52105 505.23798 48.30873 505.23798C41.096416 505.23798 35.249676 501.85974 35.249676 497.69247"
     fill-rule="nonzero"
     stroke="#666666"
     stroke-width="2.0"
     stroke-linejoin="round"
     stroke-linecap="butt"
     id="path3357" />
  <path
     d="M35.249676 497.69247L35.249676 497.69247C35.249676 493.5252 41.096416 490.14697 48.30873 490.14697C55.52105 490.14697 61.367786 493.5252 61.367786 497.69247L61.367786 527.87445C61.367786 532.0417 55.52105 535.4199 48.30873 535.4199C41.096416 535.4199 35.249676 532.0417 35.249676 527.87445Z"
     fill-rule="nonzero"
     stroke="#666666"
     stroke-width="2.0"
     stroke-linejoin="round"
     stroke-linecap="butt"
     id="path3359" />
  <path
     d="M36.989834 514.96326L36.989834 514.96326C36.989834 509.4317 42.059242 504.9475 48.312668 504.9475L48.312668 504.9475C54.566097 504.9475 59.635506 509.4317 59.635506 514.96326L59.635506 514.96326C59.635506 520.4948 54.566097 524.979 48.312668 524.979L48.312668 524.979C42.059242 524.979 36.989834 520.4948 36.989834 514.96326Z"
     fill-rule="nonzero"
     fill="#999999"
     stroke="#666666"
     stroke-width="2.0"
     stroke-linejoin="round"
     stroke-linecap="butt"
     id="path3361" />
  <path
     d="M23.060701 477.08136L23.060701 477.08136C23.060701 461.21732 34.560284 448.35696 48.74574 448.35696L48.74574 448.35696C55.55784 448.35696 62.090927 451.38327 66.90781 456.77014C71.724686 462.157 74.43078 469.46317 74.43078 477.08136L74.43078 477.08136C74.43078 492.9454 62.9312 505.8058 48.74574 505.8058L48.74574 505.8058C34.560284 505.8058 23.060701 492.9454 23.060701 477.08136Z"
     fill-rule="nonzero"
     fill="#ffffff"
     stroke="#000000"
     stroke-width="1.0"
     stroke-linejoin="round"
     stroke-linecap="butt"
     id="path3363" />
  <path
     d="M48.74574 448.35696L50.03708 422.2467"
     fill-rule="nonzero"
     stroke="#ffff00"
     stroke-width="2.0"
     stroke-linejoin="round"
     stroke-linecap="butt"
     id="path3365" />
  <path
     d="M30.583675 456.77014L10.867139 440.51816"
     fill-rule="nonzero"
     stroke="#ffff00"
     stroke-width="2.0"
     stroke-linejoin="round"
     stroke-linecap="butt"
     id="path3367" />
  <path
     d="M23.060701 477.08136L4.7929845 477.08136"
     fill-rule="nonzero"
     stroke="#ffff00"
     stroke-width="2.0"
     stroke-linejoin="round"
     stroke-linecap="butt"
     id="path3369" />
  <path
     d="M539.7817 167.59842L539.7817 167.59842C539.7817 160.62311 543.09546 154.9685 547.1832 154.9685L547.1832 154.9685C549.14624 154.9685 551.0289 156.29915 552.41693 158.66772C553.805 161.03629 554.58484 164.24876 554.58484 167.59842L554.58484 167.59842C554.58484 174.57375 551.271 180.22835 547.1832 180.22835L547.1832 180.22835C543.09546 180.22835 539.7817 174.57375 539.7817 167.59842Z"
     fill-rule="nonzero"
     fill="#00ffff"
     stroke="#073763"
     stroke-width="2.0"
     stroke-linejoin="round"
     stroke-linecap="butt"
     id="path3371" />
  <path
     d="M539.7817 220.59448L539.7817 220.59448C539.7817 213.61917 543.09546 207.96457 547.1832 207.96457L547.1832 207.96457C549.14624 207.96457 551.0289 209.29521 552.41693 211.66379C553.805 214.03235 554.58484 217.24483 554.58484 220.59448L554.58484 220.59448C554.58484 227.56981 551.271 233.22441 547.1832 233.22441L547.1832 233.22441C543.09546 233.22441 539.7817 227.56981 539.7817 220.59448Z"
     fill-rule="nonzero"
     fill="#000000"
     stroke="#073763"
     stroke-width="2.0"
     stroke-linejoin="round"
     stroke-linecap="butt"
     id="path3373" />
  <path
     d="M539.7817 270.54987L539.7817 270.54987C539.7817 263.57455 543.09546 257.91995 547.1832 257.91995L547.1832 257.91995C549.14624 257.91995 551.0289 259.2506 552.41693 261.61917C553.805 263.98773 554.58484 267.2002 554.58484 270.54987L554.58484 270.54987C554.58484 277.52518 551.271 283.17978 547.1832 283.17978L547.1832 283.17978C543.09546 283.17978 539.7817 277.52518 539.7817 270.54987Z"
     fill-rule="nonzero"
     fill="#00ffff"
     stroke="#073763"
     stroke-width="2.0"
     stroke-linejoin="round"
     stroke-linecap="butt"
     id="path3375" />
  <path
     d="M539.7817 318.76248L539.7817 318.76248C539.7817 311.78714 543.09546 306.13254 547.1832 306.13254L547.1832 306.13254C549.14624 306.13254 551.0289 307.4632 552.41693 309.83176C553.805 312.20035 554.58484 315.4128 554.58484 318.76248L554.58484 318.76248C554.58484 325.7378 551.271 331.3924 547.1832 331.3924L547.1832 331.3924C543.09546 331.3924 539.7817 325.7378 539.7817 318.76248Z"
     fill-rule="nonzero"
     fill="#000000"
     stroke="#073763"
     stroke-width="2.0"
     stroke-linejoin="round"
     stroke-linecap="butt"
     id="path3377" />
  <path
     d="M539.7817 364.78873L539.7817 364.78873C539.7817 357.81342 543.09546 352.15878 547.1832 352.15878L547.1832 352.15878C549.14624 352.15878 551.0289 353.48944 552.41693 355.858C553.805 358.2266 554.58484 361.43906 554.58484 364.78873L554.58484 364.78873C554.58484 371.76404 551.271 377.41864 547.1832 377.41864L547.1832 377.41864C543.09546 377.41864 539.7817 371.76404 539.7817 364.78873Z"
     fill-rule="nonzero"
     fill="#000000"
     stroke="#073763"
     stroke-width="2.0"
     stroke-linejoin="round"
     stroke-linecap="butt"
     id="path3379" />
  <path
     d="M560.09607 151.06036L560.09607 151.06036C567.07135 151.00818 572.74713 154.27263 572.7732 158.3517L572.7732 158.3517C572.78577 160.31055 571.4671 162.19911 569.1074 163.60194C566.7477 165.00478 563.5402 165.80696 560.19055 165.83202L560.19055 165.83202C553.2152 165.8842 547.5395 162.61977 547.51337 158.54068L547.51337 158.54068C547.4873 154.46161 553.1207 151.11255 560.09607 151.06036Z"
     fill-rule="nonzero"
     fill="#000000"
     stroke="#000000"
     stroke-width="2.0"
     stroke-linejoin="round"
     stroke-linecap="butt"
     id="path3381" />
  <path
     d="M559.9228 250.36482L559.9228 250.36482C566.89813 250.1561 572.6514 253.30067 572.7732 257.38846L572.7732 257.38846C572.83167 259.35147 571.5571 261.2739 569.2299 262.73285C566.90265 264.1918 563.71344 265.06775 560.3638 265.16797L560.3638 265.16797C553.3884 265.3767 547.63513 262.23215 547.51337 258.14435L547.51337 258.14435C547.3916 254.05658 552.9475 250.57356 559.9228 250.36482Z"
     fill-rule="nonzero"
     fill="#000000"
     stroke="#000000"
     stroke-width="2.0"
     stroke-linejoin="round"
     stroke-linecap="butt"
     id="path3383" />
  <path
     d="M275.54855 543.27295L275.9895 663.3989"
     fill-rule="nonzero"
     stroke="#000000"
     stroke-width="4.0"
     stroke-linejoin="round"
     stroke-linecap="butt"
     id="path3385" />
  <path
     d="M46.167 670.38055L48.30873 535.4199"
     fill-rule="nonzero"
     stroke="#000000"
     stroke-width="4.0"
     stroke-linejoin="round"
     stroke-linecap="butt"
     id="path3387" />
  <path
     d="M47.013123 670.3753L276.8714 663.4147"
     fill-rule="nonzero"
     stroke="#000000"
     stroke-width="4.0"
     stroke-linejoin="round"
     stroke-linecap="butt"
     id="path3389" />
  <path
     d="M49.624672 556.3228L80.96326 557.2047"
     fill-rule="nonzero"
     stroke="#000000"
     stroke-width="4.0"
     stroke-linejoin="round"
     stroke-linecap="butt"
     id="path3391" />
  <path
     d="M80.968506 557.1942L83.58268 190.67455"
     fill-rule="nonzero"
     stroke="#000000"
     stroke-width="4.0"
     stroke-linejoin="round"
     stroke-linecap="butt"
     id="path3393" />
  <path
     d="M84.44095 191.54068L56.598427 196.32808"
     fill-rule="nonzero"
     stroke="#000000"
     stroke-width="4.0"
     stroke-linejoin="round"
     stroke-linecap="butt"
     id="path3395" />
  <path
     d="M66.47474 300.06937L86.19127 282.0851"
     fill-rule="nonzero"
     stroke="#ffff00"
     stroke-width="2.0"
     stroke-linejoin="round"
     stroke-linecap="butt"
     id="path3397" />
  <path
     d="M73.99771 320.38058L95.76149 320.38058"
     fill-rule="nonzero"
     stroke="#ffff00"
     stroke-width="2.0"
     stroke-linejoin="round"
     stroke-linecap="butt"
     id="path3399" />
  <path
     d="M66.90781 456.77014L86.624344 438.7859"
     fill-rule="nonzero"
     stroke="#ffff00"
     stroke-width="2.0"
     stroke-linejoin="round"
     stroke-linecap="butt"
     id="path3401" />
  <path
     d="M74.43078 477.08136L95.75362 477.11285"
     fill-rule="nonzero"
     stroke="#ffff00"
     stroke-width="2.0"
     stroke-linejoin="round"
     stroke-linecap="butt"
     id="path3403" />
  <path
     d="M84.46228 358.7034L59.202435 358.26248"
     fill-rule="nonzero"
     stroke="#000000"
     stroke-width="4.0"
     stroke-linejoin="round"
     stroke-linecap="butt"
     id="path3405" />
</svg>
