<?xml version="1.0" standalone="yes"?>

<svg version="1.1" viewBox="0.0 0.0 1097.0 729.0" fill="none" stroke="none" stroke-linecap="square" stroke-miterlimit="10" xmlns="http://www.w3.org/2000/svg" xmlns:xlink="http://www.w3.org/1999/xlink"><path d="M931.90027 463.16797L156.18375 463.16797L156.18375 702.6011L931.90027 702.6011Z" fill-rule="nonzero" fill="#783f04" stroke="#783f04" stroke-width="2.0" stroke-linejoin="round" stroke-linecap="butt"></path><path d="M763.0 461.44095L752.98425 421.37796L145.74016 421.37796L155.7559 461.44095Z" fill-rule="nonzero" fill="#783f04" stroke="#000000" stroke-width="2.0" stroke-linejoin="round" stroke-linecap="butt"></path><path d="M711.6352 134.07611L143.13126 134.07611L143.13126 421.38318L711.6352 421.38318Z" fill-rule="nonzero" fill="#00ffff" stroke="#0000ff" stroke-width="2.0" stroke-linejoin="round" stroke-linecap="butt"></path><path d="M821.3333 464.91074L763.8688 90.54855L591.4751 90.54855L648.93964 464.91074Z" fill-rule="nonzero" fill="#b45f06" stroke="#783f04" stroke-width="2.0" stroke-linejoin="round" stroke-linecap="butt"></path><path d="M763.0 92.56955L631.7559 92.56955L631.7559 451.4987L763.0 451.4987Z" fill-rule="nonzero" fill="#b45f06"></path><path d="M631.7559 92.56955L588.0079 48.82152L588.0079 407.75064L631.7559 451.4987Z" fill-rule="nonzero" fill="#904c04"></path><path d="M763.0 92.56955L719.25195 48.82152L588.0079 48.82152L631.7559 92.56955Z" fill-rule="nonzero" fill="#c37f37"></path><path d="M763.0 92.56955L719.25195 48.82152L588.0079 48.82152L588.0079 407.75064L631.7559 451.4987L763.0 451.4987ZM763.0 92.56955L631.7559 92.56955L588.0079 48.82152M631.7559 92.56955L631.7559 451.4987" fill-rule="nonzero" stroke="#783f04" stroke-width="2.0" stroke-linejoin="round" stroke-linecap="butt"></path><path d="M634.65356 135.23734L631.6063 123.048355L141.14172 123.048355L144.18896 135.23734Z" fill-rule="nonzero" fill="#0000ff" stroke="#0000ff" stroke-width="2.0" stroke-linejoin="round" stroke-linecap="butt"></path><path d="M810.7719 526.21063L880.9938 527.2292C890.68933 527.3698 898.6651 519.49396 898.80804 509.63797C898.95105 499.78195 891.2071 491.67807 881.5115 491.5374L811.2896 490.51883L811.2896 490.51883C801.594 490.37817 793.6183 498.25406 793.47534 508.11008C793.33234 517.96606 801.0763 526.06995 810.7719 526.21063Z" fill-rule="nonzero" fill="#cfe2f3"></path><path d="M881.5115 491.5374C871.81586 491.3968 863.8401 499.27264 863.69714 509.12866C863.5542 518.9847 871.29816 527.08856 880.9938 527.2292" fill-rule="nonzero" stroke="#073763" stroke-width="2.0" stroke-linejoin="round" stroke-linecap="butt"></path><path d="M810.7719 526.21063L880.9938 527.2292C890.68933 527.3698 898.6651 519.49396 898.80804 509.63797C898.95105 499.78195 891.2071 491.67807 881.5115 491.5374L811.2896 490.51883L811.2896 490.51883C801.594 490.37817 793.6183 498.25406 793.47534 508.11008C793.33234 517.96606 801.0763 526.06995 810.7719 526.21063Z" fill-rule="nonzero" stroke="#073763" stroke-width="2.0" stroke-linejoin="round" stroke-linecap="butt"></path><path d="M899.06696 510.17584L899.06696 510.17584C899.06696 500.55652 891.07855 492.75854 881.2244 492.75854L881.2244 492.75854C876.49225 492.75854 871.954 494.59357 868.60785 497.85995C865.2617 501.12634 863.3819 505.5565 863.3819 510.17584L863.3819 510.17584C863.3819 519.79517 871.37024 527.5932 881.2244 527.5932L881.2244 527.5932C891.07855 527.5932 899.06696 519.79517 899.06696 510.17584Z" fill-rule="nonzero" fill="#00ffff" stroke="#073763" stroke-width="2.0" stroke-linejoin="round" stroke-linecap="butt"></path><path d="M917.08514 506.71036L893.84106 497.85995" fill-rule="nonzero" stroke="#073763" stroke-width="2.0" stroke-linejoin="round" stroke-linecap="butt"></path><path d="M914.50244 532.82245L893.84106 522.49176" fill-rule="nonzero" stroke="#073763" stroke-width="2.0" stroke-linejoin="round" stroke-linecap="butt"></path><path d="M1053.7874 59.2021L948.43304 59.2021L948.43304 620.7454L1053.7874 620.7454Z" fill-rule="nonzero" fill="#444444" stroke="#000000" stroke-width="2.0" stroke-linejoin="round" stroke-linecap="butt"></path><path d="M1023.31494 179.05731L1023.31494 179.05731C1023.31494 174.89005 1017.4682 171.51181 1010.2559 171.51181C1003.0436 171.51181 997.19684 174.89005 997.19684 179.05731L997.19684 209.23929C997.19684 213.40654 1003.0436 216.78477 1010.2559 216.78477C1017.4682 216.78477 1023.31494 213.40654 1023.31494 209.23929Z" fill-rule="nonzero" fill="#999999"></path><path d="M997.19684 179.05731L997.19684 179.05731C997.19684 183.22456 1003.0436 186.6028 1010.2559 186.6028C1017.4682 186.6028 1023.31494 183.22456 1023.31494 179.05731" fill-rule="nonzero" stroke="#666666" stroke-width="2.0" stroke-linejoin="round" stroke-linecap="butt"></path><path d="M1023.31494 179.05731L1023.31494 179.05731C1023.31494 174.89005 1017.4682 171.51181 1010.2559 171.51181C1003.0436 171.51181 997.19684 174.89005 997.19684 179.05731L997.19684 209.23929C997.19684 213.40654 1003.0436 216.78477 1010.2559 216.78477C1017.4682 216.78477 1023.31494 213.40654 1023.31494 209.23929Z" fill-rule="nonzero" stroke="#666666" stroke-width="2.0" stroke-linejoin="round" stroke-linecap="butt"></path><path d="M1021.5748 196.32808L1021.5748 196.32808C1021.5748 190.79654 1016.5054 186.31233 1010.25195 186.31233L1010.25195 186.31233C1003.99854 186.31233 998.92914 190.79654 998.92914 196.32808L998.92914 196.32808C998.92914 201.85963 1003.99854 206.34383 1010.25195 206.34383L1010.25195 206.34383C1016.5054 206.34383 1021.5748 201.85963 1021.5748 196.32808Z" fill-rule="nonzero" fill="#999999" stroke="#666666" stroke-width="2.0" stroke-linejoin="round" stroke-linecap="butt"></path><path d="M1035.5039 158.4462L1035.5039 158.4462C1035.5039 142.58214 1024.0044 129.72179 1009.8189 129.72179L1009.8189 129.72179C1003.0068 129.72179 996.4737 132.7481 991.65686 138.13496C986.83997 143.52184 984.13385 150.828 984.13385 158.4462L984.13385 158.4462C984.13385 174.31024 995.6334 187.17061 1009.8189 187.17061L1009.8189 187.17061C1024.0044 187.17061 1035.5039 174.31024 1035.5039 158.4462Z" fill-rule="nonzero" fill="#ffffff" stroke="#000000" stroke-width="1.0" stroke-linejoin="round" stroke-linecap="butt"></path><path d="M1009.8189 129.72179L1008.5276 103.61155" fill-rule="nonzero" stroke="#ffff00" stroke-width="2.0" stroke-linejoin="round" stroke-linecap="butt"></path><path d="M991.6568 138.13496L971.9403 120.15071" fill-rule="nonzero" stroke="#ffff00" stroke-width="2.0" stroke-linejoin="round" stroke-linecap="butt"></path><path d="M1027.981 138.13496L1047.6975 121.882996" fill-rule="nonzero" stroke="#ffff00" stroke-width="2.0" stroke-linejoin="round" stroke-linecap="butt"></path><path d="M984.13385 158.4462L965.86615 158.4462" fill-rule="nonzero" stroke="#ffff00" stroke-width="2.0" stroke-linejoin="round" stroke-linecap="butt"></path><path d="M1035.5039 158.4462L1053.7716 158.4462" fill-rule="nonzero" stroke="#ffff00" stroke-width="2.0" stroke-linejoin="round" stroke-linecap="butt"></path><path d="M1020.71094 340.9917L1020.71094 340.9917C1020.71094 336.82443 1014.8642 333.4462 1007.6519 333.4462C1000.4396 333.4462 994.59283 336.82443 994.59283 340.9917L994.59283 371.17368C994.59283 375.3409 1000.4396 378.71915 1007.6519 378.71915C1014.8642 378.71915 1020.71094 375.3409 1020.71094 371.17368Z" fill-rule="nonzero" fill="#999999"></path><path d="M994.59283 340.9917L994.59283 340.9917C994.59283 345.15894 1000.4396 348.53717 1007.6519 348.53717C1014.8642 348.53717 1020.71094 345.15894 1020.71094 340.9917" fill-rule="nonzero" stroke="#666666" stroke-width="2.0" stroke-linejoin="round" stroke-linecap="butt"></path><path d="M1020.71094 340.9917L1020.71094 340.9917C1020.71094 336.82443 1014.8642 333.4462 1007.6519 333.4462C1000.4396 333.4462 994.59283 336.82443 994.59283 340.9917L994.59283 371.17368C994.59283 375.3409 1000.4396 378.71915 1007.6519 378.71915C1014.8642 378.71915 1020.71094 375.3409 1020.71094 371.17368Z" fill-rule="nonzero" stroke="#666666" stroke-width="2.0" stroke-linejoin="round" stroke-linecap="butt"></path><path d="M1018.9708 358.26248L1018.9708 358.26248C1018.9708 352.73093 1013.90137 348.2467 1007.64795 348.2467L1007.64795 348.2467C1001.39453 348.2467 996.32513 352.73093 996.32513 358.26248L996.32513 358.26248C996.32513 363.794 1001.39453 368.27823 1007.64795 368.27823L1007.64795 368.27823C1013.90137 368.27823 1018.9708 363.794 1018.9708 358.26248Z" fill-rule="nonzero" fill="#999999" stroke="#666666" stroke-width="2.0" stroke-linejoin="round" stroke-linecap="butt"></path><path d="M1032.8999 320.38058L1032.8999 320.38058C1032.8999 304.5165 1021.4003 291.65616 1007.2149 291.65616L1007.2149 291.65616C1000.4028 291.65616 993.8697 294.6825 989.05286 300.06937C984.23596 305.45624 981.52985 312.7624 981.52985 320.38058L981.52985 320.38058C981.52985 336.24463 993.0294 349.10498 1007.2149 349.10498L1007.2149 349.10498C1021.4003 349.10498 1032.8999 336.24463 1032.8999 320.38058Z" fill-rule="nonzero" fill="#ffffff" stroke="#000000" stroke-width="1.0" stroke-linejoin="round" stroke-linecap="butt"></path><path d="M1007.2149 291.65616L1005.9236 265.54593" fill-rule="nonzero" stroke="#ffff00" stroke-width="2.0" stroke-linejoin="round" stroke-linecap="butt"></path><path d="M1025.377 300.06934L1045.0935 283.81738" fill-rule="nonzero" stroke="#ffff00" stroke-width="2.0" stroke-linejoin="round" stroke-linecap="butt"></path><path d="M1032.8999 320.38058L1051.1676 320.38058" fill-rule="nonzero" stroke="#ffff00" stroke-width="2.0" stroke-linejoin="round" stroke-linecap="butt"></path><path d="M1020.2779 497.69247L1020.2779 497.69247C1020.2779 493.5252 1014.43115 490.14697 1007.2188 490.14697C1000.00653 490.14697 994.1598 493.5252 994.1598 497.69247L994.1598 527.87445C994.1598 532.0417 1000.00653 535.4199 1007.2188 535.4199C1014.43115 535.4199 1020.2779 532.0417 1020.2779 527.87445Z" fill-rule="nonzero" fill="#999999"></path><path d="M994.1598 497.69247L994.1598 497.69247C994.1598 501.85974 1000.00653 505.23798 1007.2188 505.23798C1014.43115 505.23798 1020.2779 501.85974 1020.2779 497.69247" fill-rule="nonzero" stroke="#666666" stroke-width="2.0" stroke-linejoin="round" stroke-linecap="butt"></path><path d="M1020.2779 497.69247L1020.2779 497.69247C1020.2779 493.5252 1014.43115 490.14697 1007.2188 490.14697C1000.00653 490.14697 994.1598 493.5252 994.1598 497.69247L994.1598 527.87445C994.1598 532.0417 1000.00653 535.4199 1007.2188 535.4199C1014.43115 535.4199 1020.2779 532.0417 1020.2779 527.87445Z" fill-rule="nonzero" stroke="#666666" stroke-width="2.0" stroke-linejoin="round" stroke-linecap="butt"></path><path d="M1018.5377 514.96326L1018.5377 514.96326C1018.5377 509.4317 1013.4683 504.9475 1007.2149 504.9475L1007.2149 504.9475C1000.9615 504.9475 995.8921 509.4317 995.8921 514.96326L995.8921 514.96326C995.8921 520.4948 1000.9615 524.979 1007.2149 524.979L1007.2149 524.979C1013.4683 524.979 1018.5377 520.4948 1018.5377 514.96326Z" fill-rule="nonzero" fill="#999999" stroke="#666666" stroke-width="2.0" stroke-linejoin="round" stroke-linecap="butt"></path><path d="M1032.4669 477.08136L1032.4669 477.08136C1032.4669 461.21732 1020.9673 448.35696 1006.7818 448.35696L1006.7818 448.35696C999.9697 448.35696 993.43665 451.38327 988.61975 456.77014C983.80286 462.157 981.0968 469.46317 981.0968 477.08136L981.0968 477.08136C981.0968 492.9454 992.5964 505.8058 1006.7818 505.8058L1006.7818 505.8058C1020.9673 505.8058 1032.4669 492.9454 1032.4669 477.08136Z" fill-rule="nonzero" fill="#ffffff" stroke="#000000" stroke-width="1.0" stroke-linejoin="round" stroke-linecap="butt"></path><path d="M1006.7818 448.35696L1005.4905 422.2467" fill-rule="nonzero" stroke="#ffff00" stroke-width="2.0" stroke-linejoin="round" stroke-linecap="butt"></path><path d="M1024.9438 456.77014L1044.6604 440.51816" fill-rule="nonzero" stroke="#ffff00" stroke-width="2.0" stroke-linejoin="round" stroke-linecap="butt"></path><path d="M1032.4669 477.08136L1050.7346 477.08136" fill-rule="nonzero" stroke="#ffff00" stroke-width="2.0" stroke-linejoin="round" stroke-linecap="butt"></path><path d="M779.979 543.27295L779.5381 663.3989" fill-rule="nonzero" stroke="#000000" stroke-width="4.0" stroke-linejoin="round" stroke-linecap="butt"></path><path d="M1009.36053 670.38055L1007.2188 535.4199" fill-rule="nonzero" stroke="#000000" stroke-width="4.0" stroke-linejoin="round" stroke-linecap="butt"></path><path d="M1008.51447 670.3753L778.6562 663.4147" fill-rule="nonzero" stroke="#000000" stroke-width="4.0" stroke-linejoin="round" stroke-linecap="butt"></path><path d="M1005.9029 556.3228L974.56433 557.2047" fill-rule="nonzero" stroke="#000000" stroke-width="4.0" stroke-linejoin="round" stroke-linecap="butt"></path><path d="M974.5591 557.1942L971.9449 190.67455" fill-rule="nonzero" stroke="#000000" stroke-width="4.0" stroke-linejoin="round" stroke-linecap="butt"></path><path d="M971.0866 191.54068L998.92914 196.32808" fill-rule="nonzero" stroke="#000000" stroke-width="4.0" stroke-linejoin="round" stroke-linecap="butt"></path><path d="M989.0528 300.06934L969.3363 282.08508" fill-rule="nonzero" stroke="#ffff00" stroke-width="2.0" stroke-linejoin="round" stroke-linecap="butt"></path><path d="M981.52985 320.38058L959.76605 320.38058" fill-rule="nonzero" stroke="#ffff00" stroke-width="2.0" stroke-linejoin="round" stroke-linecap="butt"></path><path d="M988.61975 456.77014L968.9032 438.7859" fill-rule="nonzero" stroke="#ffff00" stroke-width="2.0" stroke-linejoin="round" stroke-linecap="butt"></path><path d="M981.0968 477.08136L959.7739 477.11285" fill-rule="nonzero" stroke="#ffff00" stroke-width="2.0" stroke-linejoin="round" stroke-linecap="butt"></path><path d="M971.0653 358.7034L996.32513 358.26248" fill-rule="nonzero" stroke="#000000" stroke-width="4.0" stroke-linejoin="round" stroke-linecap="butt"></path><path d="M591.3935 381.26276L591.3935 381.26276C593.86566 382.66754 591.315 391.8229 585.6965 401.71185C580.078 411.6008 573.51917 418.47855 571.04706 417.07376L768.3938 529.21497C770.86597 530.61975 777.42474 523.74194 783.0433 513.853C788.6618 503.96408 791.2124 494.80872 788.7403 493.40393Z" fill-rule="nonzero" fill="#cfe2f3"></path><path d="M591.3935 381.26276L591.3935 381.26276C588.9213 379.85797 582.36255 386.73572 576.7441 396.62466C571.12555 406.5136 568.5749 415.66898 571.04706 417.07376L571.04706 417.07376C573.51917 418.47855 580.078 411.6008 585.6965 401.71185C591.315 391.8229 593.86566 382.66754 591.3935 381.26276Z" fill-rule="nonzero" fill="#e2edf7"></path><path d="M571.04706 417.07376L571.04706 417.07376C573.51917 418.47855 580.078 411.6008 585.6965 401.71185C591.315 391.8229 593.86566 382.66754 591.3935 381.26276L591.3935 381.26276C588.9213 379.85797 582.36255 386.73572 576.7441 396.62466C571.12555 406.5136 568.5749 415.66898 571.04706 417.07376L768.3938 529.21497C770.86597 530.61975 777.42474 523.74194 783.0433 513.853C788.6618 503.96408 791.2124 494.80872 788.7403 493.40393L591.3935 381.26276" fill-rule="nonzero" stroke="#073763" stroke-width="2.0" stroke-linejoin="round" stroke-linecap="butt"></path><path d="M821.3333 504.09186L821.3333 504.09186C821.3333 482.45273 802.81836 464.91077 779.979 464.91077L779.979 464.91077C769.01117 464.91077 758.4925 469.03876 750.73706 476.38663C742.9816 483.73453 738.6247 493.70038 738.6247 504.09186L738.6247 504.09186C738.6247 525.73096 757.13965 543.27295 779.979 543.27295L779.979 543.27295C802.81836 543.27295 821.3333 525.73096 821.3333 504.09186Z" fill-rule="nonzero" fill="#cfe2f3" stroke="#073763" stroke-width="2.0" stroke-linejoin="round" stroke-linecap="butt"></path><path d="M811.31757 504.09186L811.31757 504.09186C811.31757 487.2624 797.2868 473.61942 779.979 473.61942L779.979 473.61942C771.6675 473.61942 763.6964 476.8299 757.8193 482.5446C751.94214 488.25928 748.64044 496.01007 748.64044 504.09186L748.64044 504.09186C748.64044 520.9213 762.6712 534.56433 779.979 534.56433L779.979 534.56433C797.2868 534.56433 811.31757 520.9213 811.31757 504.09186Z" fill-rule="nonzero" fill="#00ffff" stroke="#0000ff" stroke-width="2.0" stroke-linejoin="round" stroke-linecap="butt"></path><path d="M757.8193 482.5446L802.13873 525.63916" fill-rule="nonzero" stroke="#000000" stroke-width="8.0" stroke-linejoin="round" stroke-linecap="butt"></path><path d="M802.13873 482.5446L757.8193 525.63916" fill-rule="nonzero" stroke="#000000" stroke-width="8.0" stroke-linejoin="round" stroke-linecap="butt"></path><path d="M779.979 473.61942L779.979 534.56433" fill-rule="nonzero" stroke="#000000" stroke-width="8.0" stroke-linejoin="round" stroke-linecap="butt"></path><path d="M811.31757 504.09186L748.64044 504.09186" fill-rule="nonzero" stroke="#000000" stroke-width="8.0" stroke-linejoin="round" stroke-linecap="butt"></path><path d="M142.66534 129.14284L91.98818 129.14284" fill-rule="nonzero" stroke="#073763" stroke-width="2.0" stroke-linejoin="round" stroke-linecap="butt"></path><path d="M142.20735 459.7034L95.026245 459.7034" fill-rule="nonzero" stroke="#073763" stroke-width="2.0" stroke-linejoin="round" stroke-linecap="butt"></path><path d="M113.28609 263.34122L113.28609 142.90025" fill-rule="evenodd" stroke="#073763" stroke-width="2.0" stroke-linejoin="round" stroke-linecap="butt"></path><path d="M116.589554 142.90025L113.28609 133.82405L109.98262 142.90025Z" fill-rule="evenodd" fill="#073763" stroke="#073763" stroke-width="2.0" stroke-linecap="butt"></path><path d="M111.76378 328.7953L111.76378 447.6929" fill-rule="evenodd" stroke="#073763" stroke-width="2.0" stroke-linejoin="round" stroke-linecap="butt"></path><path d="M108.46031 447.6929L111.76378 456.7691L115.067245 447.6929Z" fill-rule="evenodd" fill="#073763" stroke="#073763" stroke-width="2.0" stroke-linecap="butt"></path><path d="M17.037035 287.94336L13.287035 278.08398L15.05266 278.08398L17.17766 283.99023Q17.52141 284.94336 17.80266 285.9746Q18.02141 285.19336 18.42766 284.0996L20.61516 278.08398L22.33391 278.08398L18.599535 287.94336L17.037035 287.94336ZM30.068285 286.7246Q29.130785 287.52148 28.27141 287.8418Q27.412035 288.1621 26.42766 288.1621Q24.818285 288.1621 23.943285 287.37305Q23.068285 286.58398 23.068285 285.3496Q23.068285 284.61523 23.39641 284.02148Q23.724535 283.42773 24.255785 283.06836Q24.787035 282.70898 25.45891 282.52148Q25.95891 282.38086 26.943285 282.27148Q28.974535 282.02148 29.92766 281.69336Q29.92766 281.3496 29.92766 281.25586Q29.92766 280.24023 29.45891 279.81836Q28.818285 279.25586 27.55266 279.25586Q26.380785 279.25586 25.818285 279.6621Q25.255785 280.06836 24.99016 281.13086L23.349535 280.89648Q23.58391 279.8496 24.091722 279.20898Q24.599535 278.56836 25.560472 278.2168Q26.52141 277.86523 27.80266 277.86523Q29.068285 277.86523 29.849535 278.1621Q30.630785 278.45898 31.005785 278.9121Q31.380785 279.36523 31.52141 280.05273Q31.61516 280.4746 31.61516 281.58398L31.61516 283.81836Q31.61516 286.14648 31.716722 286.76367Q31.818285 287.38086 32.14641 287.94336L30.39641 287.94336Q30.130785 287.42773 30.068285 286.7246ZM29.92766 283.00586Q29.02141 283.36523 27.193285 283.63086Q26.162035 283.77148 25.74016 283.95898Q25.318285 284.14648 25.08391 284.50586Q24.849535 284.86523 24.849535 285.30273Q24.849535 285.9746 25.357347 286.41992Q25.86516 286.86523 26.83391 286.86523Q27.80266 286.86523 28.55266 286.43555Q29.30266 286.00586 29.662035 285.2871Q29.92766 284.70898 29.92766 283.61523L29.92766 283.00586ZM33.99016 287.94336L33.99016 278.08398L35.49016 278.08398L35.49016 279.58398Q36.068287 278.5371 36.55266 278.20117Q37.037037 277.86523 37.630787 277.86523Q38.474537 277.86523 39.349537 278.4121L38.77141 279.95898Q38.162037 279.5996 37.537037 279.5996Q36.99016 279.5996 36.560474 279.92773Q36.130787 280.25586 35.943287 280.83398Q35.662037 281.7246 35.662037 282.7871L35.662037 287.94336L33.99016 287.94336ZM40.24016 276.25586L40.24016 274.3496L41.912037 274.3496L41.912037 276.25586L40.24016 276.25586ZM40.24016 287.94336L40.24016 278.08398L41.912037 278.08398L41.912037 287.94336L40.24016 287.94336ZM50.80266 286.7246Q49.86516 287.52148 49.005787 287.8418Q48.14641 288.1621 47.162037 288.1621Q45.55266 288.1621 44.67766 287.37305Q43.80266 286.58398 43.80266 285.3496Q43.80266 284.61523 44.130787 284.02148Q44.45891 283.42773 44.99016 283.06836Q45.52141 282.70898 46.193287 282.52148Q46.693287 282.38086 47.67766 282.27148Q49.70891 282.02148 50.662037 281.69336Q50.662037 281.3496 50.662037 281.25586Q50.662037 280.24023 50.193287 279.81836Q49.55266 279.25586 48.287037 279.25586Q47.11516 279.25586 46.55266 279.6621Q45.99016 280.06836 45.724537 281.13086L44.08391 280.89648Q44.318287 279.8496 44.8261 279.20898Q45.33391 278.56836 46.29485 278.2168Q47.255787 277.86523 48.537037 277.86523Q49.80266 277.86523 50.58391 278.1621Q51.36516 278.45898 51.74016 278.9121Q52.11516 279.36523 52.255787 280.05273Q52.349537 280.4746 52.349537 281.58398L52.349537 283.81836Q52.349537 286.14648 52.4511 286.76367Q52.55266 287.38086 52.880787 287.94336L51.130787 287.94336Q50.86516 287.42773 50.80266 286.7246ZM50.662037 283.00586Q49.755787 283.36523 47.92766 283.63086Q46.89641 283.77148 46.474537 283.95898Q46.05266 284.14648 45.818287 284.50586Q45.58391 284.86523 45.58391 285.30273Q45.58391 285.9746 46.091724 286.41992Q46.599537 286.86523 47.568287 286.86523Q48.537037 286.86523 49.287037 286.43555Q50.037037 286.00586 50.39641 285.2871Q50.662037 284.70898 50.662037 283.61523L50.662037 283.00586ZM56.287037 287.94336L54.74016 287.94336L54.74016 274.3496L56.39641 274.3496L56.39641 279.19336Q57.45891 277.86523 59.099537 277.86523Q60.005787 277.86523 60.818287 278.23242Q61.630787 278.5996 62.154224 279.26367Q62.67766 279.92773 62.974537 280.86523Q63.27141 281.80273 63.27141 282.86523Q63.27141 285.39648 62.02141 286.7793Q60.77141 288.1621 59.02141 288.1621Q57.27141 288.1621 56.287037 286.70898L56.287037 287.94336ZM56.27141 282.94336Q56.27141 284.70898 56.74016 285.50586Q57.537037 286.7871 58.880787 286.7871Q59.974537 286.7871 60.77141 285.8418Q61.568287 284.89648 61.568287 283.00586Q61.568287 281.08398 60.80266 280.1621Q60.037037 279.24023 58.95891 279.24023Q57.86516 279.24023 57.068287 280.19336Q56.27141 281.14648 56.27141 282.94336ZM65.08391 287.94336L65.08391 274.3496L66.75578 274.3496L66.75578 287.94336L65.08391 287.94336ZM76.02141 284.77148L77.74016 284.99023Q77.33391 286.49023 76.232346 287.32617Q75.13078 288.1621 73.41203 288.1621Q71.25578 288.1621 69.99016 286.83398Q68.72453 285.50586 68.72453 283.0996Q68.72453 280.61523 69.99797 279.24023Q71.27141 277.86523 73.31828 277.86523Q75.30266 277.86523 76.55266 279.20898Q77.80266 280.55273 77.80266 283.00586Q77.80266 283.14648 77.78703 283.44336L70.44328 283.44336Q70.53703 285.06836 71.36516 285.92773Q72.19328 286.7871 73.42766 286.7871Q74.33391 286.7871 74.982346 286.31055Q75.63078 285.83398 76.02141 284.77148ZM70.53703 282.06836L76.03703 282.06836Q75.92766 280.83398 75.41203 280.20898Q74.61516 279.24023 73.33391 279.24023Q72.19328 279.24023 71.40422 280.01367Q70.61516 280.7871 70.53703 282.06836ZM84.81828 287.94336L84.81828 274.3496L86.49016 274.3496L86.49016 279.2246Q87.66203 277.86523 89.44328 277.86523Q90.53703 277.86523 91.34172 278.29492Q92.14641 278.7246 92.49797 279.49023Q92.84953 280.25586 92.84953 281.69336L92.84953 287.94336L91.17766 287.94336L91.17766 281.69336Q91.17766 280.44336 90.63078 279.87305Q90.08391 279.30273 89.09953 279.30273Q88.34953 279.30273 87.701096 279.68555Q87.05266 280.06836 86.77141 280.73242Q86.49016 281.39648 86.49016 282.55273L86.49016 287.94336L84.81828 287.94336ZM101.94328 284.77148L103.66203 284.99023Q103.25578 286.49023 102.15422 287.32617Q101.05266 288.1621 99.33391 288.1621Q97.17766 288.1621 95.91203 286.83398Q94.64641 285.50586 94.64641 283.0996Q94.64641 280.61523 95.919846 279.24023Q97.19328 277.86523 99.24016 277.86523Q101.22453 277.86523 102.47453 279.20898Q103.72453 280.55273 103.72453 283.00586Q103.72453 283.14648 103.70891 283.44336L96.36516 283.44336Q96.45891 285.06836 97.28703 285.92773Q98.11516 286.7871 99.34953 286.7871Q100.25578 286.7871 100.90422 286.31055Q101.55266 285.83398 101.94328 284.77148ZM96.45891 282.06836L101.95891 282.06836Q101.84953 280.83398 101.33391 280.20898Q100.53703 279.24023 99.25578 279.24023Q98.11516 279.24023 97.326096 280.01367Q96.53703 280.7871 96.45891 282.06836ZM105.59953 276.25586L105.59953 274.3496L107.27141 274.3496L107.27141 276.25586L105.59953 276.25586ZM105.59953 287.94336L105.59953 278.08398L107.27141 278.08398L107.27141 287.94336L105.59953 287.94336ZM109.42766 288.75586L111.03703 289.00586Q111.14641 289.75586 111.61516 290.0996Q112.22453 290.55273 113.30266 290.55273Q114.47453 290.55273 115.09953 290.0918Q115.72453 289.63086 115.95891 288.80273Q116.08391 288.2871 116.06828 286.64648Q114.97453 287.94336 113.34953 287.94336Q111.31828 287.94336 110.201096 286.4746Q109.08391 285.00586 109.08391 282.95898Q109.08391 281.55273 109.59953 280.35742Q110.11516 279.1621 111.08391 278.51367Q112.05266 277.86523 113.34953 277.86523Q115.09953 277.86523 116.22453 279.27148L116.22453 278.08398L117.77141 278.08398L117.77141 286.5996Q117.77141 288.9121 117.30266 289.87305Q116.83391 290.83398 115.81828 291.38867Q114.80266 291.94336 113.31828 291.94336Q111.55266 291.94336 110.46672 291.14648Q109.38078 290.3496 109.42766 288.75586ZM110.80266 282.83398Q110.80266 284.7871 111.576096 285.67773Q112.34953 286.56836 113.50578 286.56836Q114.64641 286.56836 115.42766 285.67773Q116.20891 284.7871 116.20891 282.89648Q116.20891 281.08398 115.40422 280.16992Q114.59953 279.25586 113.47453 279.25586Q112.36516 279.25586 111.58391 280.1543Q110.80266 281.05273 110.80266 282.83398ZM120.09953 287.94336L120.09953 274.3496L121.77141 274.3496L121.77141 279.2246Q122.94328 277.86523 124.72453 277.86523Q125.81828 277.86523 126.62297 278.29492Q127.42766 278.7246 127.77922 279.49023Q128.13078 280.25586 128.13078 281.69336L128.13078 287.94336L126.45891 287.94336L126.45891 281.69336Q126.45891 280.44336 125.91203 279.87305Q125.36516 279.30273 124.38078 279.30273Q123.63078 279.30273 122.982346 279.68555Q122.33391 280.06836 122.05266 280.73242Q121.77141 281.39648 121.77141 282.55273L121.77141 287.94336L120.09953 287.94336ZM134.13078 286.44336L134.36516 287.92773Q133.66203 288.06836 133.09953 288.06836Q132.19328 288.06836 131.69328 287.7793Q131.19328 287.49023 130.99016 287.0293Q130.78703 286.56836 130.78703 285.05273L130.78703 279.39648L129.55266 279.39648L129.55266 278.08398L130.78703 278.08398L130.78703 275.64648L132.44328 274.64648L132.44328 278.08398L134.13078 278.08398L134.13078 279.39648L132.44328 279.39648L132.44328 285.14648Q132.44328 285.86523 132.52922 286.06836Q132.61516 286.27148 132.81828 286.39648Q133.02141 286.52148 133.39641 286.52148Q133.66203 286.52148 134.13078 286.44336Z" fill-rule="nonzero" fill="#000000"></path><path d="M41.17766 304.02148Q41.17766 301.2871 42.70891 299.95898Q43.974537 298.86523 45.80266 298.86523Q47.83391 298.86523 49.122974 300.20117Q50.412037 301.5371 50.412037 303.88086Q50.412037 305.7871 49.841724 306.87305Q49.27141 307.95898 48.185474 308.56055Q47.099537 309.1621 45.80266 309.1621Q43.74016 309.1621 42.45891 307.83398Q41.17766 306.50586 41.17766 304.02148ZM42.89641 304.02148Q42.89641 305.9121 43.724537 306.8496Q44.55266 307.7871 45.80266 307.7871Q47.05266 307.7871 47.872974 306.8418Q48.693287 305.89648 48.693287 303.95898Q48.693287 302.13086 47.86516 301.19336Q47.037037 300.25586 45.80266 300.25586Q44.55266 300.25586 43.724537 301.19336Q42.89641 302.13086 42.89641 304.02148ZM52.58391 308.94336L52.58391 300.39648L51.099537 300.39648L51.099537 299.08398L52.58391 299.08398L52.58391 298.0371Q52.58391 297.05273 52.755787 296.56836Q52.99016 295.9121 53.599537 295.51367Q54.20891 295.11523 55.30266 295.11523Q56.005787 295.11523 56.86516 295.27148L56.61516 296.74023Q56.099537 296.64648 55.630787 296.64648Q54.86516 296.64648 54.55266 296.9668Q54.24016 297.2871 54.24016 298.17773L54.24016 299.08398L56.162037 299.08398L56.162037 300.39648L54.24016 300.39648L54.24016 308.94336L52.58391 308.94336ZM64.36516 308.94336L61.349537 299.08398L63.068287 299.08398L64.63078 304.77148L65.22453 306.89648Q65.25578 306.74023 65.72453 304.86523L67.30266 299.08398L69.02141 299.08398L70.49016 304.80273L70.97453 306.69336L71.55266 304.7871L73.24016 299.08398L74.86516 299.08398L71.78703 308.94336L70.05266 308.94336L68.47453 303.0371L68.09953 301.36523L66.09953 308.94336L64.36516 308.94336ZM82.45891 307.7246Q81.52141 308.52148 80.66203 308.8418Q79.80266 309.1621 78.81828 309.1621Q77.20891 309.1621 76.33391 308.37305Q75.45891 307.58398 75.45891 306.3496Q75.45891 305.61523 75.78703 305.02148Q76.11516 304.42773 76.64641 304.06836Q77.17766 303.70898 77.84953 303.52148Q78.34953 303.38086 79.33391 303.27148Q81.36516 303.02148 82.31828 302.69336Q82.31828 302.3496 82.31828 302.25586Q82.31828 301.24023 81.84953 300.81836Q81.20891 300.25586 79.94328 300.25586Q78.77141 300.25586 78.20891 300.6621Q77.64641 301.06836 77.38078 302.13086L75.74016 301.89648Q75.97453 300.8496 76.482346 300.20898Q76.99016 299.56836 77.951096 299.2168Q78.91203 298.86523 80.19328 298.86523Q81.45891 298.86523 82.24016 299.1621Q83.02141 299.45898 83.39641 299.9121Q83.77141 300.36523 83.91203 301.05273Q84.00578 301.4746 84.00578 302.58398L84.00578 304.81836Q84.00578 307.14648 84.107346 307.76367Q84.20891 308.38086 84.53703 308.94336L82.78703 308.94336Q82.52141 308.42773 82.45891 307.7246ZM82.31828 304.00586Q81.41203 304.36523 79.58391 304.63086Q78.55266 304.77148 78.13078 304.95898Q77.70891 305.14648 77.47453 305.50586Q77.24016 305.86523 77.24016 306.30273Q77.24016 306.9746 77.74797 307.41992Q78.25578 307.86523 79.22453 307.86523Q80.19328 307.86523 80.94328 307.43555Q81.69328 307.00586 82.05266 306.2871Q82.31828 305.70898 82.31828 304.61523L82.31828 304.00586ZM90.05266 307.44336L90.28703 308.92773Q89.58391 309.06836 89.02141 309.06836Q88.11516 309.06836 87.61516 308.7793Q87.11516 308.49023 86.91203 308.0293Q86.70891 307.56836 86.70891 306.05273L86.70891 300.39648L85.47453 300.39648L85.47453 299.08398L86.70891 299.08398L86.70891 296.64648L88.36516 295.64648L88.36516 299.08398L90.05266 299.08398L90.05266 300.39648L88.36516 300.39648L88.36516 306.14648Q88.36516 306.86523 88.451096 307.06836Q88.53703 307.27148 88.74016 307.39648Q88.94328 307.52148 89.31828 307.52148Q89.58391 307.52148 90.05266 307.44336ZM98.31828 305.77148L100.03703 305.99023Q99.63078 307.49023 98.52922 308.32617Q97.42766 309.1621 95.70891 309.1621Q93.55266 309.1621 92.28703 307.83398Q91.02141 306.50586 91.02141 304.0996Q91.02141 301.61523 92.294846 300.24023Q93.56828 298.86523 95.61516 298.86523Q97.59953 298.86523 98.84953 300.20898Q100.09953 301.55273 100.09953 304.00586Q100.09953 304.14648 100.08391 304.44336L92.74016 304.44336Q92.83391 306.06836 93.66203 306.92773Q94.49016 307.7871 95.72453 307.7871Q96.63078 307.7871 97.27922 307.31055Q97.92766 306.83398 98.31828 305.77148ZM92.83391 303.06836L98.33391 303.06836Q98.22453 301.83398 97.70891 301.20898Q96.91203 300.24023 95.63078 300.24023Q94.49016 300.24023 93.701096 301.01367Q92.91203 301.7871 92.83391 303.06836ZM101.92766 308.94336L101.92766 299.08398L103.42766 299.08398L103.42766 300.58398Q104.00578 299.5371 104.49016 299.20117Q104.97453 298.86523 105.56828 298.86523Q106.41203 298.86523 107.28703 299.4121L106.70891 300.95898Q106.09953 300.5996 105.47453 300.5996Q104.92766 300.5996 104.49797 300.92773Q104.06828 301.25586 103.88078 301.83398Q103.59953 302.7246 103.59953 303.7871L103.59953 308.94336L101.92766 308.94336Z" fill-rule="nonzero" fill="#000000"></path></svg>

